<?xml version="1.0" encoding="UTF-8" standalone="no"?>
<!-- Generator: Adobe Illustrator 15.0.2, SVG Export Plug-In . SVG Version: 6.00 Build 0)  -->

<svg
   version="1.1"
   id="Ebene_1"
   x="0px"
   y="0px"
   width="85.362999"
   height="75.737"
   viewBox="0 0 85.362995 75.736998"
   enable-background="new 0 0 595.275 841.89"
   xml:space="preserve"
   sodipodi:docname="cubeqa-notext.svg"
   inkscape:version="1.2.1 (9c6d41e410, 2022-07-14, custom)"
   xmlns:inkscape="http://www.inkscape.org/namespaces/inkscape"
   xmlns:sodipodi="http://sodipodi.sourceforge.net/DTD/sodipodi-0.dtd"
   xmlns="http://www.w3.org/2000/svg"
   xmlns:svg="http://www.w3.org/2000/svg"><defs
   id="defs53" /><sodipodi:namedview
   id="namedview51"
   pagecolor="#505050"
   bordercolor="#ffffff"
   borderopacity="1"
   inkscape:showpageshadow="0"
   inkscape:pageopacity="0"
   inkscape:pagecheckerboard="1"
   inkscape:deskcolor="#505050"
   showgrid="false"
   inkscape:zoom="0.90035514"
   inkscape:cx="166.04559"
   inkscape:cy="151.05151"
   inkscape:window-width="1920"
   inkscape:window-height="1019"
   inkscape:window-x="0"
   inkscape:window-y="0"
   inkscape:window-maximized="1"
   inkscape:current-layer="g48" />
<g
   id="g48"
   transform="translate(-131.663,-270.348)">
	
	
	
	
	
	
	<g
   id="g32">
		<polygon
   fill="#5c6970"
   points="164.106,308.878 164.106,346.085 131.663,327.391 131.663,290.183 "
   id="polygon30" />
	</g>
	<polygon
   fill="#0b72b5"
   points="203.116,302.317 217.026,294.302 217.026,278.359 203.116,270.348 189.206,278.358 189.206,278.363 203.116,286.377 "
   id="polygon34" />
	<g
   id="g40">
		<polygon
   fill="#82939c"
   points="196.552,327.391 196.552,306.135 182.642,314.149 182.642,298.21 164.106,308.878 164.106,346.085 "
   id="polygon36" />
		<polygon
   fill="#82939c"
   points="196.552,290.191 196.552,290.183 196.544,290.187 "
   id="polygon38" />
	</g>
	<g
   id="g46">
		<polygon
   fill="#9db0ba"
   points="131.663,290.183 131.663,290.184 "
   id="polygon42" />
		<polygon
   fill="#9db0ba"
   points="164.106,271.489 131.663,290.183 164.106,308.878 182.642,298.21 168.731,290.194 168.731,290.19 182.642,282.18 "
   id="polygon44" />
	</g>
</g>
</svg>
