<?xml version="1.0" encoding="UTF-8" standalone="no"?>
<!-- Generator: Adobe Illustrator 15.0.2, SVG Export Plug-In . SVG Version: 6.00 Build 0)  -->

<svg
   version="1.1"
   id="Ebene_1"
   x="0px"
   y="0px"
   width="331.94901"
   height="75.737"
   viewBox="0 0 331.94899 75.736998"
   enable-background="new 0 0 595.275 841.89"
   xml:space="preserve"
   sodipodi:docname="cubeqa.svg"
   inkscape:version="1.2.1 (9c6d41e410, 2022-07-14, custom)"
   xmlns:inkscape="http://www.inkscape.org/namespaces/inkscape"
   xmlns:sodipodi="http://sodipodi.sourceforge.net/DTD/sodipodi-0.dtd"
   xmlns="http://www.w3.org/2000/svg"
   xmlns:svg="http://www.w3.org/2000/svg"><defs
   id="defs53" /><sodipodi:namedview
   id="namedview51"
   pagecolor="#505050"
   bordercolor="#ffffff"
   borderopacity="1"
   inkscape:showpageshadow="0"
   inkscape:pageopacity="0"
   inkscape:pagecheckerboard="1"
   inkscape:deskcolor="#505050"
   showgrid="false"
   inkscape:zoom="0.90035514"
   inkscape:cx="166.04559"
   inkscape:cy="151.05151"
   inkscape:window-width="1920"
   inkscape:window-height="1019"
   inkscape:window-x="0"
   inkscape:window-y="0"
   inkscape:window-maximized="1"
   inkscape:current-layer="Ebene_1" />
<g
   id="g48"
   transform="translate(-131.663,-270.348)">
	<path
   fill="#9db0ba"
   d="m 256.745,295.198 c -1.854,-0.631 -4.062,-0.946 -6.625,-0.946 -6.508,0 -9.76,4.831 -9.76,14.494 0,9.07 3.352,13.605 10.057,13.605 1.734,0 3.539,-0.345 5.412,-1.035 1.873,-0.689 3.322,-1.391 4.348,-2.1 l 1.479,-1.006 3.254,5.322 c -0.158,0.159 -0.395,0.385 -0.709,0.681 -0.316,0.297 -0.998,0.82 -2.041,1.568 -1.045,0.749 -2.141,1.4 -3.283,1.951 -1.145,0.554 -2.574,1.065 -4.289,1.539 -1.717,0.474 -3.441,0.71 -5.176,0.71 -6.033,0 -10.699,-1.784 -13.99,-5.354 -3.295,-3.568 -4.939,-8.764 -4.939,-15.588 0,-6.899 1.793,-12.323 5.383,-16.267 3.588,-3.943 8.439,-5.916 14.553,-5.916 2.129,0 4.338,0.227 6.625,0.681 2.287,0.454 4.043,0.917 5.264,1.39 l 1.895,0.71 -0.297,11.24 h -5.797 z"
   id="path18" />
	<path
   fill="#9db0ba"
   d="m 272.786,319.275 v -15.677 l -4.318,-1.065 v -4.732 l 13.074,-0.473 v 20.291 c 0,1.617 0.256,2.81 0.768,3.578 0.512,0.77 1.361,1.154 2.545,1.154 1.104,0 2.236,-0.268 3.4,-0.799 1.164,-0.533 2.062,-1.074 2.691,-1.627 l 0.887,-0.828 v -15.499 l -4.375,-1.065 v -4.732 l 13.072,-0.473 v 25.732 l 4.496,1.184 v 4.614 l -12.068,0.414 -0.592,-4.141 c -0.119,0.117 -0.305,0.287 -0.561,0.502 -0.258,0.218 -0.762,0.602 -1.51,1.154 -0.75,0.552 -1.52,1.035 -2.307,1.449 -0.789,0.414 -1.744,0.789 -2.869,1.124 -1.123,0.336 -2.199,0.502 -3.225,0.502 -2.957,0 -5.217,-0.925 -6.771,-2.779 -1.558,-1.853 -2.337,-4.455 -2.337,-7.808 z"
   id="path20" />
	<path
   fill="#9db0ba"
   d="m 306.972,283.899 13.133,-0.474 v 16.446 c 2.721,-2.091 5.539,-3.136 8.459,-3.136 3.943,0 6.951,1.36 9.021,4.083 2.068,2.72 3.105,6.586 3.105,11.593 0,5.643 -1.461,9.979 -4.377,13.014 -2.922,3.039 -7.18,4.557 -12.779,4.557 -1.932,0 -3.904,-0.109 -5.916,-0.326 -2.01,-0.217 -3.549,-0.423 -4.613,-0.62 l -1.598,-0.355 v -38.865 l -4.436,-1.184 v -4.733 z m 13.132,22.48 v 16.21 c 0.906,0.315 2.365,0.472 4.377,0.472 4.693,0 7.039,-3.352 7.039,-10.056 0,-6.192 -1.932,-9.287 -5.797,-9.287 -1.064,0 -2.062,0.217 -2.988,0.65 -0.926,0.433 -1.607,0.888 -2.041,1.359 z"
   id="path22" />
	<path
   fill="#9db0ba"
   d="m 374.323,315.075 -19.641,0.178 c 0.158,2.445 0.877,4.338 2.158,5.679 1.283,1.342 2.93,2.011 4.939,2.011 1.461,0 3.018,-0.226 4.674,-0.68 1.658,-0.452 2.938,-0.916 3.846,-1.392 l 1.42,-0.708 2.543,4.731 c -0.434,0.354 -1.045,0.809 -1.834,1.36 -0.787,0.553 -2.365,1.293 -4.732,2.22 -2.365,0.926 -4.674,1.389 -6.92,1.389 -5.01,0 -8.824,-1.389 -11.447,-4.17 -2.623,-2.781 -3.934,-6.714 -3.934,-11.802 0,-5.244 1.398,-9.414 4.199,-12.512 2.799,-3.095 6.664,-4.644 11.596,-4.644 4.336,0 7.668,1.242 9.996,3.728 2.326,2.484 3.49,5.876 3.49,10.175 z m -13.724,-11.417 c -1.617,0 -2.93,0.553 -3.934,1.655 -1.006,1.105 -1.627,2.584 -1.863,4.438 h 10.646 c 0,-4.061 -1.617,-6.093 -4.849,-6.093 z"
   id="path24" />
	<path
   fill="#9db0ba"
   d="m 421.317,329.272 v -3.596 l 4.852,-1.137 13.484,-36.383 5.916,-0.294 13.135,36.677 4.908,1.137 v 3.596 h -17.154 v -3.596 l 5.502,-1.137 -2.248,-6.507 h -15.381 l -2.307,6.507 5.561,1.137 v 3.596 z m 20.823,-33.778 -6.211,17.806 h 12.186 z"
   id="path26" />
	<path
   fill="#9db0ba"
   d="m 421.233,334.737 c -0.848,0.293 -1.588,0.45 -2.197,0.45 -1.5,0 -3.57,-0.789 -6.213,-2.365 l -6.389,-3.846 c 2.09,-0.63 3.963,-1.577 5.621,-2.84 1.656,-1.261 3.064,-2.799 4.229,-4.613 1.165,-1.814 2.061,-3.855 2.691,-6.123 0.63,-2.268 0.947,-4.741 0.947,-7.423 0,-3.195 -0.414,-6.073 -1.242,-8.638 -0.828,-2.563 -2.021,-4.742 -3.578,-6.536 -1.559,-1.795 -3.482,-3.166 -5.768,-4.112 -2.289,-0.945 -4.893,-1.42 -7.811,-1.42 -2.918,0 -5.59,0.514 -8.016,1.539 -2.426,1.025 -4.506,2.483 -6.24,4.377 -1.734,1.893 -3.086,4.16 -4.053,6.803 -0.967,2.643 -1.449,5.581 -1.449,8.813 0,6.469 1.42,11.467 4.26,14.997 2.84,3.529 6.961,5.511 12.363,5.945 l 11.773,7.216 c 3.588,2.169 6.152,3.255 7.689,3.255 0.941,0 2.076,-0.246 3.381,-0.71 v -4.769 z M 391.38,320.665 c -2.07,-2.78 -3.105,-6.852 -3.105,-12.216 0,-5.402 1.113,-9.444 3.342,-12.127 2.229,-2.682 5.453,-4.022 9.672,-4.022 8.084,0 12.127,5.324 12.127,15.973 0,5.481 -1.074,9.612 -3.225,12.393 -2.148,2.781 -5.314,4.17 -9.494,4.17 -4.141,-0.001 -7.247,-1.39 -9.317,-4.171 z"
   id="path28" />
	<g
   id="g32">
		<polygon
   fill="#5c6970"
   points="131.663,327.391 131.663,290.183 164.106,308.878 164.106,346.085 "
   id="polygon30" />
	</g>
	<polygon
   fill="#0b72b5"
   points="189.206,278.363 203.116,286.377 203.116,302.317 217.026,294.302 217.026,278.359 203.116,270.348 189.206,278.358 "
   id="polygon34" />
	<g
   id="g40">
		<polygon
   fill="#82939c"
   points="164.106,308.878 164.106,346.085 196.552,327.391 196.552,306.135 182.642,314.149 182.642,298.21 "
   id="polygon36" />
		<polygon
   fill="#82939c"
   points="196.552,290.183 196.544,290.187 196.552,290.191 "
   id="polygon38" />
	</g>
	<g
   id="g46">
		<polygon
   fill="#9db0ba"
   points="131.663,290.183 131.663,290.184 131.663,290.183 "
   id="polygon42" />
		<polygon
   fill="#9db0ba"
   points="168.731,290.19 182.642,282.18 164.106,271.489 131.663,290.183 164.106,308.878 182.642,298.21 168.731,290.194 "
   id="polygon44" />
	</g>
</g>
</svg>
